<svg width="51" height="51" viewBox="0 0 51 51" fill="none" xmlns="http://www.w3.org/2000/svg">
<mask id="mask0_127_24" style="mask-type:alpha" maskUnits="userSpaceOnUse" x="0" y="0" width="51" height="51">
<rect width="51" height="51" fill="#D9D9D9"/>
</mask>
<g mask="url(#mask0_127_24)">
<path d="M42.0188 46.6068C37.5917 46.6068 33.2177 45.5822 28.8969 43.5331C24.576 41.4839 20.6448 38.5794 17.1031 34.8195C13.5615 31.0597 10.8255 26.8862 8.89531 22.2991C6.9651 17.7121 6 13.0686 6 8.36873C6 7.69195 6.2125 7.12797 6.6375 6.67678C7.0625 6.22559 7.59375 6 8.23125 6H16.8375C17.3333 6 17.776 6.17859 18.1656 6.53578C18.5552 6.89297 18.7854 7.31596 18.8563 7.80475L20.2375 15.7005C20.3083 16.3021 20.2906 16.8097 20.1844 17.2233C20.0781 17.6369 19.8833 17.994 19.6 18.2948L14.4469 23.8219C15.1552 25.213 15.9964 26.5572 16.9703 27.8544C17.9443 29.1515 19.0156 30.4017 20.1844 31.6048C21.2823 32.7704 22.4333 33.8514 23.6375 34.8477C24.8417 35.8441 26.1167 36.7559 27.4625 37.5831L32.4562 32.2816C32.775 31.9432 33.1911 31.6894 33.7047 31.5202C34.2182 31.351 34.7229 31.304 35.2188 31.3792L42.55 32.9584C43.0458 33.1088 43.4531 33.3814 43.7719 33.7762C44.0906 34.171 44.25 34.6128 44.25 35.1015V44.2381C44.25 44.9148 44.0375 45.4788 43.6125 45.93C43.1875 46.3812 42.6562 46.6068 42.0188 46.6068Z" fill="white"/>
</g>
</svg>
