<svg width="21" height="20" viewBox="0 0 21 20" fill="none" xmlns="http://www.w3.org/2000/svg">
<g clip-path="url(#clip0_797_141)">
<path d="M16.0083 2H20.0104V17C20.0104 17.7956 19.6942 18.5587 19.1313 19.1213C18.5684 19.6839 17.8049 20 17.0089 20H3.00156C2.2055 20 1.44204 19.6839 0.879137 19.1213C0.316235 18.5587 0 17.7956 0 17L0 0H16.0083V2ZM16.0083 4V17C16.0083 17.2652 16.1137 17.5196 16.3014 17.7071C16.489 17.8946 16.7435 18 17.0089 18C17.2742 18 17.5287 17.8946 17.7163 17.7071C17.904 17.5196 18.0094 17.2652 18.0094 17V4H16.0083ZM2.00104 2V17C2.00104 17.2652 2.10645 17.5196 2.29409 17.7071C2.48172 17.8946 2.73621 18 3.00156 18H14.1774C14.0643 17.6787 14.0068 17.3406 14.0073 17V2H2.00104ZM4.00208 10H12.0063V12H4.00208V10ZM4.00208 14H12.0063V16H4.00208V14ZM4.00208 4H12.0063V8H4.00208V4Z" fill="#F8F8F8"/>
</g>
<defs>
<clipPath id="clip0_797_141">
<rect width="20.0104" height="20" fill="white"/>
</clipPath>
</defs>
</svg>
