<svg width="46" height="46" viewBox="0 0 46 46" fill="none" xmlns="http://www.w3.org/2000/svg">
<path d="M40.2497 19.1663H36.4163V7.66634H38.333V3.83301H7.66634V7.66634H9.58301V19.1663H5.74967C5.24134 19.1663 4.75383 19.3683 4.39439 19.7277C4.03494 20.0872 3.83301 20.5747 3.83301 21.083V38.333H42.1663V21.083C42.1663 20.5747 41.9644 20.0872 41.605 19.7277C41.2455 19.3683 40.758 19.1663 40.2497 19.1663ZM26.833 34.4997V26.833H19.1663V34.4997H13.4163V7.66634H32.583V34.4997H26.833Z" fill="white"/>
<path d="M17.25 11.5H21.0833V15.3333H17.25V11.5ZM24.9167 11.5H28.75V15.3333H24.9167V11.5ZM17.25 19.1667H21.0833V23H17.25V19.1667ZM24.9167 19.1667H28.75V23H24.9167V19.1667Z" fill="white"/>
</svg>
