<svg width="26" height="26" viewBox="0 0 26 26" fill="none" xmlns="http://www.w3.org/2000/svg">
<path d="M22.7503 10.8337H20.5837V4.33366H21.667V2.16699H4.33366V4.33366H5.41699V10.8337H3.25033C2.96301 10.8337 2.68746 10.9478 2.48429 11.151C2.28113 11.3541 2.16699 11.6297 2.16699 11.917V21.667H23.8337V11.917C23.8337 11.6297 23.7195 11.3541 23.5164 11.151C23.3132 10.9478 23.0376 10.8337 22.7503 10.8337ZM15.167 19.5003V15.167H10.8337V19.5003H7.58366V4.33366H18.417V19.5003H15.167Z" fill="white"/>
<path d="M9.75 6.5H11.9167V8.66667H9.75V6.5ZM14.0833 6.5H16.25V8.66667H14.0833V6.5ZM9.75 10.8333H11.9167V13H9.75V10.8333ZM14.0833 10.8333H16.25V13H14.0833V10.8333Z" fill="white"/>
</svg>
