<svg width="47" height="47" viewBox="0 0 47 47" fill="none" xmlns="http://www.w3.org/2000/svg">
<path d="M18.1194 11.385C19.2656 8.03087 23.9001 7.92928 25.259 11.0803L25.374 11.387L26.9207 15.9103C27.2752 16.9476 27.848 17.8969 28.6006 18.6941C29.3531 19.4913 30.2678 20.1178 31.2831 20.5314L31.699 20.6866L36.2223 22.2315C39.5765 23.3776 39.6781 28.0121 36.529 29.371L36.2223 29.486L31.699 31.0328C30.6613 31.387 29.7116 31.9597 28.9141 32.7123C28.1166 33.4648 27.4898 34.3797 27.076 35.3951L26.9207 35.8091L25.3759 40.3344C24.2297 43.6885 19.5952 43.7901 18.2382 40.641L18.1194 40.3344L16.5746 35.811C16.2203 34.7733 15.6476 33.8237 14.8951 33.0261C14.1425 32.2286 13.2277 31.6018 12.2122 31.188L11.7982 31.0328L7.27491 29.4879C3.91882 28.3418 3.81724 23.7073 6.96824 22.3503L7.27491 22.2315L11.7982 20.6866C12.8356 20.3321 13.7849 19.7593 14.5821 19.0068C15.3792 18.2543 16.0057 17.3395 16.4193 16.3243L16.5746 15.9103L18.1194 11.385ZM37.081 4.77637C37.4396 4.77637 37.7909 4.87695 38.0952 5.06669C38.3995 5.25642 38.6444 5.52771 38.8022 5.8497L38.8942 6.07395L39.565 8.04045L41.5334 8.71128C41.8927 8.83337 42.2078 9.05938 42.4385 9.36068C42.6693 9.66198 42.8054 10.025 42.8296 10.4037C42.8538 10.7825 42.7651 11.1599 42.5746 11.4881C42.3841 11.8164 42.1004 12.0807 41.7596 12.2475L41.5334 12.3395L39.5669 13.0104L38.8961 14.9788C38.7738 15.338 38.5476 15.6529 38.2462 15.8834C37.9448 16.114 37.5817 16.2499 37.203 16.2739C36.8242 16.2979 36.4469 16.209 36.1188 16.0183C35.7907 15.8277 35.5265 15.5439 35.3598 15.203L35.2678 14.9788L34.597 13.0123L32.6286 12.3415C32.2692 12.2194 31.9542 11.9934 31.7235 11.6921C31.4927 11.3908 31.3566 11.0277 31.3324 10.649C31.3082 10.2703 31.3969 9.89285 31.5874 9.56461C31.7779 9.23637 32.0615 8.97207 32.4024 8.8052L32.6286 8.7132L34.5951 8.04237L35.2659 6.07395C35.3952 5.69527 35.6397 5.36653 35.9652 5.13382C36.2907 4.90112 36.6809 4.77613 37.081 4.77637Z" fill="#F8F8F8"/>
</svg>
