<svg width="44" height="44" viewBox="0 0 44 44" fill="none" xmlns="http://www.w3.org/2000/svg">
<path fill-rule="evenodd" clip-rule="evenodd" d="M19.4768 4.52702C20.5159 4.52702 21.5372 4.63094 22.5208 4.8316C22.9865 4.92616 23.3955 5.20184 23.6579 5.59799C23.9204 5.99413 24.0147 6.4783 23.9201 6.94398C23.8255 7.40965 23.5499 7.81869 23.1537 8.08111C22.7576 8.34353 22.2734 8.43783 21.8077 8.34327C19.5511 7.88292 17.2087 8.10201 15.0765 8.97284C12.9444 9.84366 11.1184 11.3271 9.82928 13.2356C8.54018 15.1442 7.84591 17.3921 7.83426 19.6952C7.8226 21.9982 8.49408 24.253 9.7638 26.1745C11.0335 28.096 12.8444 29.5979 14.9676 30.4902C17.0908 31.3826 19.431 31.6254 21.6921 31.1879C23.9533 30.7504 26.034 29.6523 27.6711 28.0324C29.3082 26.4125 30.4283 24.3436 30.8897 22.0871C30.9365 21.8566 31.0283 21.6375 31.1598 21.4424C31.2913 21.2472 31.4599 21.0799 31.6561 20.95C31.8522 20.8201 32.0721 20.73 32.303 20.6851C32.5339 20.6401 32.7715 20.641 33.0021 20.6879C33.2326 20.7347 33.4517 20.8265 33.6469 20.9579C33.842 21.0894 34.0093 21.2581 34.1392 21.4542C34.2691 21.6504 34.3592 21.8702 34.4041 22.1012C34.4491 22.3321 34.4482 22.5696 34.4014 22.8002C33.965 24.937 33.0747 26.9551 31.7909 28.7181L31.4379 29.1839L37.9811 35.7271C38.3059 36.0488 38.4954 36.4824 38.5109 36.9393C38.5264 37.3961 38.3667 37.8416 38.0645 38.1845C37.7623 38.5275 37.3404 38.7419 36.8853 38.784C36.4301 38.8262 35.9761 38.6927 35.6161 38.411L35.4477 38.2605L28.9045 31.7174C26.9972 33.2205 24.7581 34.2457 22.3739 34.7075C19.9898 35.1693 17.5298 35.0542 15.1992 34.3719C12.8686 33.6896 10.7349 32.4598 8.97624 30.7852C7.21756 29.1106 5.88484 27.0397 5.08929 24.7452C4.29374 22.4508 4.05842 19.9994 4.40296 17.5955C4.7475 15.1916 5.66191 12.905 7.0699 10.9264C8.4779 8.94781 10.3386 7.3346 12.4969 6.22139C14.6552 5.10817 17.0483 4.52723 19.4768 4.52702ZM34.7059 2.73535C35.0411 2.73535 35.3696 2.82937 35.654 3.00674C35.9384 3.1841 36.1674 3.43769 36.3149 3.73868L36.4009 3.94831L36.6338 4.62556C36.8796 5.34614 37.2757 6.00627 37.7958 6.56225C38.316 7.11822 38.9483 7.55735 39.6509 7.85056L39.9824 7.97598L40.6596 8.2071C40.995 8.32152 41.289 8.53282 41.5042 8.81429C41.7195 9.09576 41.8465 9.43475 41.8692 9.78839C41.8918 10.142 41.809 10.4944 41.6314 10.801C41.4537 11.1077 41.1891 11.3547 40.8711 11.5109L40.6596 11.5969L39.9824 11.8299C39.2618 12.0757 38.6017 12.4718 38.0457 12.9919C37.4897 13.5121 37.0506 14.1444 36.7574 14.847L36.632 15.1785L36.4009 15.8557C36.2862 16.191 36.0748 16.4848 35.7932 16.6999C35.5116 16.915 35.1726 17.0418 34.819 17.0642C34.4653 17.0867 34.113 17.0037 33.8065 16.826C33.5 16.6482 33.2531 16.3835 33.097 16.0654L33.011 15.8557L32.7781 15.1785C32.5323 14.4579 32.1362 13.7978 31.616 13.2418C31.0959 12.6858 30.4636 12.2467 29.7609 11.9535L29.4295 11.8281L28.7522 11.5969C28.4168 11.4825 28.1229 11.2712 27.9076 10.9897C27.6923 10.7083 27.5654 10.3693 27.5427 10.0157C27.5201 9.66201 27.6028 9.3096 27.7805 9.00299C27.9582 8.69638 28.2228 8.44934 28.5408 8.2931L28.7522 8.2071L29.4295 7.97418C30.1501 7.72837 30.8102 7.33227 31.3662 6.81212C31.9221 6.29198 32.3613 5.65965 32.6545 4.95702L32.7799 4.62556L33.011 3.94831C33.1317 3.59461 33.36 3.28752 33.664 3.07002C33.9679 2.85252 34.3322 2.7355 34.7059 2.73535ZM34.7059 8.46152C34.2821 8.9949 33.7988 9.47819 33.2654 9.90202C33.8005 10.326 34.2807 10.8062 34.7059 11.3425C35.13 10.8074 35.6101 10.3272 36.1464 9.90202C35.6131 9.47819 35.1298 8.9949 34.7059 8.46152Z" fill="white"/>
</svg>
