<svg width="35" height="35" viewBox="0 0 35 35" fill="none" xmlns="http://www.w3.org/2000/svg">
<mask id="mask0_797_245" style="mask-type:luminance" maskUnits="userSpaceOnUse" x="4" y="0" width="27" height="35">
<path d="M17.5 32.0837C17.5 32.0837 28.4375 23.3337 28.4375 13.8545C28.4375 7.81407 23.5404 2.91699 17.5 2.91699C11.4596 2.91699 6.5625 7.81407 6.5625 13.8545C6.5625 23.3337 17.5 32.0837 17.5 32.0837Z" fill="white" stroke="white" stroke-width="4" stroke-linejoin="round"/>
<path d="M17.5 18.2295C18.0745 18.2295 18.6434 18.1163 19.1742 17.8965C19.705 17.6766 20.1873 17.3543 20.5936 16.9481C20.9998 16.5418 21.3221 16.0595 21.542 15.5287C21.7618 14.9979 21.875 14.429 21.875 13.8545C21.875 13.28 21.7618 12.7111 21.542 12.1803C21.3221 11.6495 20.9998 11.1672 20.5936 10.7609C20.1873 10.3546 19.705 10.0324 19.1742 9.81252C18.6434 9.59266 18.0745 9.47949 17.5 9.47949C16.3397 9.47949 15.2269 9.94043 14.4064 10.7609C13.5859 11.5814 13.125 12.6942 13.125 13.8545C13.125 15.0148 13.5859 16.1276 14.4064 16.9481C15.2269 17.7686 16.3397 18.2295 17.5 18.2295Z" fill="black" stroke="black" stroke-width="4" stroke-linejoin="round"/>
</mask>
<g mask="url(#mask0_797_245)">
<path d="M0 0H35V35H0V0Z" fill="#068EC2"/>
</g>
</svg>
