<svg width="34" height="34" viewBox="0 0 34 34" fill="none" xmlns="http://www.w3.org/2000/svg">
<path d="M23.6956 31.4134L19.9143 27.2884L21.5093 25.6934L23.6956 27.8796L28.6318 22.9434L30.2268 24.8821L23.6956 31.4134ZM8.91431 31.1934C8.18496 31.1934 7.48549 30.9036 6.96976 30.3879C6.45404 29.8722 6.16431 29.1727 6.16431 28.4434V6.44336C6.16431 4.91711 7.38806 3.69336 8.91431 3.69336H10.2893V13.3184L13.7268 11.2559L17.1643 13.3184V3.69336H25.4143C26.1437 3.69336 26.8431 3.98309 27.3589 4.49882C27.8746 5.01454 28.1643 5.71401 28.1643 6.44336V19.2859C26.5737 18.7253 24.8497 18.6652 23.224 19.1137C21.5982 19.5622 20.1488 20.4978 19.0707 21.7945C17.9925 23.0913 17.3373 24.6872 17.1931 26.3675C17.049 28.0477 17.4228 29.7319 18.2643 31.1934H8.91431Z" fill="#0790C2"/>
</svg>
