<svg width="21" height="21" viewBox="0 0 21 21" fill="none" xmlns="http://www.w3.org/2000/svg">
<path d="M16.7044 2.94336H20.7065V17.9434C20.7065 18.739 20.3902 19.5021 19.8273 20.0647C19.2644 20.6273 18.501 20.9434 17.7049 20.9434H3.69761C2.90154 20.9434 2.13808 20.6273 1.57518 20.0647C1.01228 19.5021 0.696045 18.739 0.696045 17.9434L0.696045 0.943359H16.7044V2.94336ZM16.7044 4.94336V17.9434C16.7044 18.2086 16.8098 18.4629 16.9974 18.6505C17.1851 18.838 17.4395 18.9434 17.7049 18.9434C17.9703 18.9434 18.2247 18.838 18.4124 18.6505C18.6 18.4629 18.7054 18.2086 18.7054 17.9434V4.94336H16.7044ZM2.69709 2.94336V17.9434C2.69709 18.2086 2.8025 18.4629 2.99013 18.6505C3.17777 18.838 3.43225 18.9434 3.69761 18.9434H14.8734C14.7603 18.6221 14.7028 18.2839 14.7033 17.9434V2.94336H2.69709ZM4.69813 10.9434H12.7023V12.9434H4.69813V10.9434ZM4.69813 14.9434H12.7023V16.9434H4.69813V14.9434ZM4.69813 4.94336H12.7023V8.94336H4.69813V4.94336Z" fill="#F8F8F8"/>
</svg>
