<svg width="28" height="28" viewBox="0 0 28 28" fill="none" xmlns="http://www.w3.org/2000/svg">
<path d="M15.4299 19.9277C15.4299 20.1781 15.3557 20.4227 15.2166 20.6309C15.0776 20.839 14.8799 21.0012 14.6486 21.097C14.4174 21.1928 14.1629 21.2179 13.9174 21.169C13.6719 21.1202 13.4464 20.9997 13.2694 20.8227C13.0924 20.6457 12.9718 20.4202 12.923 20.1746C12.8742 19.9291 12.8992 19.6747 12.995 19.4434C13.0908 19.2121 13.253 19.0145 13.4612 18.8754C13.6693 18.7363 13.914 18.6621 14.1643 18.6621C14.5 18.6621 14.8219 18.7955 15.0592 19.0328C15.2966 19.2702 15.4299 19.5921 15.4299 19.9277ZM14.1643 8.53711C11.8377 8.53711 9.94556 10.2404 9.94556 12.334V12.7559C9.94556 12.9796 10.0345 13.1942 10.1927 13.3525C10.3509 13.5107 10.5655 13.5996 10.7893 13.5996C11.0131 13.5996 11.2277 13.5107 11.3859 13.3525C11.5442 13.1942 11.6331 12.9796 11.6331 12.7559V12.334C11.6331 11.1738 12.769 10.2246 14.1643 10.2246C15.5597 10.2246 16.6956 11.1738 16.6956 12.334C16.6956 13.4941 15.5597 14.4434 14.1643 14.4434C13.9405 14.4434 13.7259 14.5323 13.5677 14.6905C13.4095 14.8487 13.3206 15.0633 13.3206 15.2871V16.1309C13.3206 16.3546 13.4095 16.5692 13.5677 16.7275C13.7259 16.8857 13.9405 16.9746 14.1643 16.9746C14.3881 16.9746 14.6027 16.8857 14.7609 16.7275C14.9192 16.5692 15.0081 16.3546 15.0081 16.1309V16.0549C16.9318 15.7016 18.3831 14.167 18.3831 12.334C18.3831 10.2404 16.491 8.53711 14.1643 8.53711ZM25.1331 14.4434C25.1331 16.6128 24.4898 18.7335 23.2845 20.5373C22.0792 22.3411 20.3661 23.747 18.3619 24.5772C16.3576 25.4074 14.1521 25.6246 12.0244 25.2013C9.89669 24.7781 7.94224 23.7334 6.40823 22.1994C4.87423 20.6654 3.82955 18.711 3.40632 16.5833C2.98309 14.4555 3.20031 12.2501 4.03051 10.2458C4.86071 8.24152 6.2666 6.52844 8.0704 5.32318C9.8742 4.11792 11.9949 3.47461 14.1643 3.47461C17.0725 3.47768 19.8606 4.6343 21.917 6.69067C23.9734 8.74705 25.13 11.5352 25.1331 14.4434ZM23.4456 14.4434C23.4456 12.6077 22.9012 10.8133 21.8814 9.28697C20.8616 7.76068 19.412 6.57108 17.7161 5.8686C16.0202 5.16613 14.154 4.98233 12.3536 5.34045C10.5532 5.69857 8.89948 6.58252 7.60148 7.88052C6.30347 9.17853 5.41952 10.8323 5.0614 12.6327C4.70328 14.4331 4.88708 16.2992 5.58955 17.9951C6.29203 19.6911 7.48163 21.1406 9.00792 22.1604C10.5342 23.1803 12.3287 23.7246 14.1643 23.7246C16.625 23.7218 18.9841 22.7431 20.7241 21.0031C22.464 19.2631 23.4428 16.904 23.4456 14.4434Z" fill="black"/>
</svg>
