<svg width="110" height="116" viewBox="0 0 110 116" fill="none" xmlns="http://www.w3.org/2000/svg">
<path fill-rule="evenodd" clip-rule="evenodd" d="M55 116C85.3757 116 110 90.0325 110 58C110 25.9675 85.3757 0 55 0C24.6243 0 0 25.9675 0 58C0 90.0325 24.6243 116 55 116ZM53.8357 54.8483C47.1163 54.8483 41.6482 49.3802 41.6482 42.6608C41.6482 35.9414 47.1163 30.4733 53.8357 30.4733C60.5551 30.4733 66.0232 35.9414 66.0232 42.6608C66.0232 49.3802 60.5551 54.8483 53.8357 54.8483ZM78.2107 81.9316H75.5024H29.4607V79.2233C29.4607 68.7719 37.9649 60.265 48.419 60.265H59.2524C69.7038 60.265 78.2107 68.7719 78.2107 79.2233V81.9316Z" fill="#0790C2"/>
</svg>
