<svg width="28" height="28" viewBox="0 0 28 28" fill="none" xmlns="http://www.w3.org/2000/svg">
<path d="M14.1643 4.31836C14.451 4.31868 14.7268 4.42847 14.9353 4.62531C15.1438 4.82215 15.2693 5.09118 15.2861 5.37743C15.3029 5.66368 15.2098 5.94554 15.0258 6.16542C14.8417 6.38531 14.5807 6.52662 14.2959 6.56048L14.1643 6.56836H8.53931C8.26376 6.5684 7.9978 6.66956 7.79189 6.85266C7.58597 7.03577 7.45442 7.28808 7.42218 7.56173L7.41431 7.69336V21.1934C7.41434 21.4689 7.51551 21.7349 7.69861 21.9408C7.88172 22.1467 8.13402 22.2782 8.40768 22.3105L8.53931 22.3184H13.6018C13.8885 22.3187 14.1643 22.4285 14.3728 22.6253C14.5813 22.8222 14.7068 23.0912 14.7236 23.3774C14.7404 23.6637 14.6473 23.9455 14.4633 24.1654C14.2792 24.3853 14.0182 24.5266 13.7334 24.5605L13.6018 24.5684H8.53931C7.67844 24.5684 6.8501 24.2395 6.22376 23.6489C5.59742 23.0583 5.22044 22.2507 5.16993 21.3914L5.16431 21.1934V7.69336C5.16426 6.8325 5.49317 6.00416 6.08375 5.37782C6.67433 4.75148 7.48193 4.37449 8.34131 4.32398L8.53931 4.31836H14.1643ZM20.5847 10.4654L23.7662 13.648C23.9771 13.859 24.0956 14.1451 24.0956 14.4434C24.0956 14.7417 23.9771 15.0278 23.7662 15.2387L20.5847 18.4214C20.3736 18.6323 20.0873 18.7508 19.7889 18.7507C19.4905 18.7505 19.2043 18.6319 18.9934 18.4208C18.7824 18.2097 18.664 17.9235 18.6641 17.625C18.6642 17.3266 18.7828 17.0404 18.9939 16.8295L20.2551 15.5684H14.1643C13.8659 15.5684 13.5798 15.4498 13.3688 15.2389C13.1578 15.0279 13.0393 14.7417 13.0393 14.4434C13.0393 14.145 13.1578 13.8588 13.3688 13.6479C13.5798 13.4369 13.8659 13.3184 14.1643 13.3184H20.2551L18.9939 12.0572C18.7828 11.8463 18.6642 11.5601 18.6641 11.2617C18.664 10.9633 18.7824 10.677 18.9934 10.4659C19.2043 10.2548 19.4905 10.1362 19.7889 10.1361C20.0873 10.136 20.3736 10.2544 20.5847 10.4654Z" fill="#F8F8F8"/>
</svg>
