<svg width="110" height="116" viewBox="0 0 110 116" fill="none" xmlns="http://www.w3.org/2000/svg">
<path fill-rule="evenodd" clip-rule="evenodd" d="M110 58C110 90.0325 85.3757 116 55 116C24.6243 116 0 90.0325 0 58C0 25.9675 24.6243 0 55 0C85.3757 0 110 25.9675 110 58ZM79.25 54.8333H74.0833V39.3333H76.6667V34.1667H35.3333V39.3333H37.9167V54.8333H32.75C32.0649 54.8333 31.4078 55.1055 30.9233 55.59C30.4388 56.0744 30.1667 56.7315 30.1667 57.4167V80.6667H81.8333V57.4167C81.8333 56.7315 81.5612 56.0744 81.0767 55.59C80.5922 55.1055 79.9351 54.8333 79.25 54.8333ZM61.1667 75.5V65.1667H50.8333V75.5H43.0833V39.3333H68.9167V75.5H61.1667ZM53.4167 44.5H48.25V49.6667H53.4167V44.5ZM63.75 44.5H58.5833V49.6667H63.75V44.5ZM53.4167 54.8333H48.25V60H53.4167V54.8333ZM63.75 54.8333H58.5833V60H63.75V54.8333Z" fill="#0790C2"/>
</svg>
