<svg width="47" height="48" viewBox="0 0 47 48" fill="none" xmlns="http://www.w3.org/2000/svg">
<path d="M33.7268 36.1934C28.5518 36.1934 26.4962 30.0599 24.5081 24.129C22.625 18.5067 20.6743 12.6934 16.4768 12.6934C15.4966 12.7524 14.5557 13.1082 13.7741 13.7156C12.9925 14.323 12.4056 15.1544 12.0881 16.1038L9.36121 15.1667C9.43452 14.9464 11.1883 9.75586 16.4768 9.75586C22.73 9.75586 25.1191 16.8866 27.2293 23.1773C28.9673 28.3605 30.6075 33.2559 33.7268 33.2559C34.7069 33.197 35.6477 32.8413 36.4293 32.2342C37.2108 31.6271 37.7978 30.7961 38.1155 29.8469L40.841 30.7825C40.7691 31.0028 39.0154 36.1934 33.7268 36.1934Z" fill="#F8F8F8"/>
<path d="M6.41431 42.0684V25.9121H9.28931V22.9746H6.41431V3.88086H3.53931V42.0684C3.53931 42.8474 3.84221 43.5946 4.38137 44.1455C4.92054 44.6964 5.65181 45.0059 6.41431 45.0059H43.7893V42.0684H6.41431Z" fill="#F8F8F8"/>
<path d="M12.1643 22.9746H15.0393V25.9121H12.1643V22.9746ZM17.9143 22.9746H20.7893V25.9121H17.9143V22.9746ZM29.4143 22.9746H32.2893V25.9121H29.4143V22.9746ZM35.1643 22.9746H38.0393V25.9121H35.1643V22.9746ZM40.9143 22.9746H43.7893V25.9121H40.9143V22.9746Z" fill="#F8F8F8"/>
</svg>
