<svg width="37" height="37" viewBox="0 0 37 37" fill="none" xmlns="http://www.w3.org/2000/svg">
<path d="M20.6128 5.66504L33.5638 28.096C33.7613 28.4381 33.8653 28.8261 33.8653 29.221C33.8653 29.616 33.7613 30.004 33.5638 30.346C33.3664 30.6881 33.0823 30.9721 32.7403 31.1696C32.3983 31.3671 32.0103 31.471 31.6153 31.471H5.71332C5.31837 31.471 4.93038 31.3671 4.58834 31.1696C4.24631 30.9721 3.96228 30.6881 3.76481 30.346C3.56734 30.004 3.46338 29.616 3.46338 29.221C3.46338 28.8261 3.56735 28.4381 3.76482 28.096L16.7158 5.66504C17.5813 4.16504 19.7458 4.16504 20.6128 5.66504ZM18.6643 23.443C18.2665 23.443 17.885 23.6011 17.6037 23.8824C17.3224 24.1637 17.1643 24.5452 17.1643 24.943C17.1643 25.3409 17.3224 25.7224 17.6037 26.0037C17.885 26.285 18.2665 26.443 18.6643 26.443C19.0621 26.443 19.4437 26.285 19.725 26.0037C20.0063 25.7224 20.1643 25.3409 20.1643 24.943C20.1643 24.5452 20.0063 24.1637 19.725 23.8824C19.4437 23.6011 19.0621 23.443 18.6643 23.443ZM18.6643 12.943C18.2969 12.9431 17.9423 13.078 17.6678 13.3221C17.3932 13.5663 17.2178 13.9027 17.1748 14.2675L17.1643 14.443V20.443C17.1647 20.8254 17.3111 21.1931 17.5736 21.4711C17.836 21.7491 18.1948 21.9164 18.5764 21.9388C18.9581 21.9612 19.3339 21.837 19.6271 21.5916C19.9202 21.3463 20.1087 20.9982 20.1538 20.6185L20.1643 20.443V14.443C20.1643 14.0452 20.0063 13.6637 19.725 13.3824C19.4437 13.1011 19.0621 12.943 18.6643 12.943Z" fill="#0790C2"/>
</svg>
