<svg width="27" height="27" viewBox="0 0 27 27" fill="none" xmlns="http://www.w3.org/2000/svg">
<path d="M14.8831 19.2246C14.8831 19.4657 14.8116 19.7013 14.6777 19.9017C14.5437 20.1021 14.3534 20.2583 14.1307 20.3506C13.908 20.4428 13.663 20.467 13.4265 20.4199C13.1901 20.3729 12.973 20.2568 12.8025 20.0864C12.6321 19.916 12.516 19.6988 12.469 19.4624C12.422 19.226 12.4461 18.9809 12.5383 18.7582C12.6306 18.5355 12.7868 18.3452 12.9872 18.2113C13.1876 18.0773 13.4233 18.0059 13.6643 18.0059C13.9875 18.0059 14.2975 18.1343 14.5261 18.3628C14.7547 18.5914 14.8831 18.9014 14.8831 19.2246ZM13.6643 8.25586C11.4238 8.25586 9.60181 9.89609 9.60181 11.9121V12.3184C9.60181 12.5338 9.68741 12.7405 9.83979 12.8929C9.99216 13.0453 10.1988 13.1309 10.4143 13.1309C10.6298 13.1309 10.8365 13.0453 10.9888 12.8929C11.1412 12.7405 11.2268 12.5338 11.2268 12.3184V11.9121C11.2268 10.7949 12.3206 9.88086 13.6643 9.88086C15.008 9.88086 16.1018 10.7949 16.1018 11.9121C16.1018 13.0293 15.008 13.9434 13.6643 13.9434C13.4488 13.9434 13.2422 14.029 13.0898 14.1813C12.9374 14.3337 12.8518 14.5404 12.8518 14.7559V15.5684C12.8518 15.7838 12.9374 15.9905 13.0898 16.1429C13.2422 16.2953 13.4488 16.3809 13.6643 16.3809C13.8798 16.3809 14.0865 16.2953 14.2388 16.1429C14.3912 15.9905 14.4768 15.7838 14.4768 15.5684V15.4952C16.3293 15.155 17.7268 13.6773 17.7268 11.9121C17.7268 9.89609 15.9048 8.25586 13.6643 8.25586ZM24.2268 13.9434C24.2268 16.0324 23.6073 18.0746 22.4467 19.8116C21.2861 21.5486 19.6364 22.9024 17.7064 23.7018C15.7764 24.5013 13.6526 24.7105 11.6037 24.3029C9.55475 23.8953 7.67269 22.8894 6.1955 21.4122C4.7183 19.935 3.71232 18.0529 3.30477 16.004C2.89721 13.9551 3.10638 11.8313 3.90583 9.90127C4.70528 7.97122 6.05911 6.32158 7.7961 5.16096C9.5331 4.00034 11.5752 3.38086 13.6643 3.38086C16.4648 3.38382 19.1496 4.4976 21.1299 6.47781C23.1101 8.45802 24.2239 11.1429 24.2268 13.9434ZM22.6018 13.9434C22.6018 12.1757 22.0776 10.4477 21.0956 8.97795C20.1135 7.50819 18.7177 6.36264 17.0845 5.68619C15.4514 5.00973 13.6544 4.83274 11.9207 5.17759C10.187 5.52245 8.59448 6.37366 7.34454 7.62359C6.09461 8.87353 5.2434 10.466 4.89854 12.1997C4.55369 13.9334 4.73068 15.7305 5.40714 17.3636C6.0836 18.9967 7.22914 20.3926 8.6989 21.3746C10.1687 22.3567 11.8966 22.8809 13.6643 22.8809C16.0339 22.8782 18.3056 21.9357 19.9811 20.2602C21.6566 18.5846 22.5991 16.3129 22.6018 13.9434Z" fill="#F8F8F8"/>
</svg>
