<svg width="44" height="46" viewBox="0 0 44 46" fill="none" xmlns="http://www.w3.org/2000/svg">
<path d="M24.9247 1.63281L43.2719 33.4101C43.5517 33.8946 43.699 34.4443 43.699 35.0038C43.699 35.5633 43.5517 36.113 43.272 36.5975C42.9922 37.0821 42.5898 37.4845 42.1053 37.7642C41.6207 38.044 41.0711 38.1913 40.5116 38.1913H3.81706C3.25754 38.1913 2.70789 38.044 2.22334 37.7642C1.73879 37.4845 1.33641 37.0821 1.05666 36.5975C0.77691 36.113 0.629635 35.5633 0.629639 35.0038C0.629642 34.4443 0.776924 33.8946 1.05668 33.4101L19.4039 1.63281C20.6301 -0.492187 23.6964 -0.492187 24.9247 1.63281ZM22.1643 26.8183C21.6007 26.8183 21.0602 27.0422 20.6617 27.4407C20.2632 27.8392 20.0393 28.3797 20.0393 28.9433C20.0393 29.5069 20.2632 30.0474 20.6617 30.4459C21.0602 30.8444 21.6007 31.0683 22.1643 31.0683C22.7279 31.0683 23.2684 30.8444 23.6669 30.4459C24.0654 30.0474 24.2893 29.5069 24.2893 28.9433C24.2893 28.3797 24.0654 27.8392 23.6669 27.4407C23.2684 27.0422 22.7279 26.8183 22.1643 26.8183ZM22.1643 11.9433C21.6438 11.9434 21.1415 12.1345 20.7525 12.4803C20.3636 12.8262 20.1151 13.3028 20.0542 13.8197L20.0393 14.0683V22.5683C20.0399 23.1099 20.2473 23.6309 20.6191 24.0247C20.9909 24.4186 21.4991 24.6556 22.0398 24.6873C22.5805 24.719 23.1129 24.5431 23.5282 24.1955C23.9435 23.8479 24.2105 23.3548 24.2744 22.8169L24.2893 22.5683V14.0683C24.2893 13.5047 24.0654 12.9642 23.6669 12.5657C23.2684 12.1672 22.7279 11.9433 22.1643 11.9433Z" fill="#F8F8F8"/>
</svg>
