<svg width="45" height="45" viewBox="0 0 45 45" fill="none" xmlns="http://www.w3.org/2000/svg">
<path fill-rule="evenodd" clip-rule="evenodd" d="M18.8297 7.76158C20.5127 4.76958 24.8181 4.76958 26.4989 7.76158L38.7749 29.5856C40.4249 32.5204 38.3063 36.1416 34.9425 36.1416H10.3883C7.02234 36.1416 4.90374 32.5204 6.55374 29.5856L18.8297 7.76158ZM24.8643 29.5438C24.8643 30.1273 24.6326 30.6868 24.22 31.0994C23.8074 31.512 23.2478 31.7438 22.6643 31.7438C22.0809 31.7438 21.5213 31.512 21.1087 31.0994C20.6961 30.6868 20.4643 30.1273 20.4643 29.5438C20.4643 28.9603 20.6961 28.4007 21.1087 27.9881C21.5213 27.5756 22.0809 27.3438 22.6643 27.3438C23.2478 27.3438 23.8074 27.5756 24.22 27.9881C24.6326 28.4007 24.8643 28.9603 24.8643 29.5438ZM22.6643 11.9438C22.0809 11.9438 21.5213 12.1756 21.1087 12.5881C20.6961 13.0007 20.4643 13.5603 20.4643 14.1438V20.7438C20.4643 21.3273 20.6961 21.8868 21.1087 22.2994C21.5213 22.712 22.0809 22.9438 22.6643 22.9438C23.2478 22.9438 23.8074 22.712 24.22 22.2994C24.6326 21.8868 24.8643 21.3273 24.8643 20.7438V14.1438C24.8643 13.5603 24.6326 13.0007 24.22 12.5881C23.8074 12.1756 23.2478 11.9438 22.6643 11.9438Z" fill="black"/>
</svg>
