<svg width="45" height="44" viewBox="0 0 45 44" fill="none" xmlns="http://www.w3.org/2000/svg">
<path d="M38.5999 29.3313C38.4571 29.1595 38.317 28.9876 38.1794 28.8217C36.2878 26.5349 35.1434 25.1548 35.1434 18.6811C35.1434 15.3295 34.3412 12.5795 32.7599 10.517C31.594 8.99336 30.018 7.8375 27.9406 6.98328C27.9139 6.96842 27.89 6.94892 27.8701 6.9257C27.1229 4.42492 25.0783 2.75 22.7722 2.75C20.4662 2.75 18.4224 4.42492 17.6752 6.92312C17.6553 6.94553 17.6318 6.96441 17.6056 6.97898C12.7579 8.97359 10.402 12.8004 10.402 18.6785C10.402 25.1548 9.25927 26.5349 7.36594 28.8191C7.22837 28.985 7.08822 29.1534 6.94549 29.3288C6.5768 29.7732 6.3432 30.3138 6.27235 30.8868C6.20149 31.4597 6.29634 32.041 6.54567 32.5617C7.07618 33.6789 8.20685 34.3724 9.49744 34.3724H36.0565C37.3411 34.3724 38.464 33.6798 38.9962 32.5677C39.2466 32.0469 39.3424 31.4651 39.2721 30.8915C39.2019 30.3179 38.9686 29.7765 38.5999 29.3313ZM22.7722 41.25C24.0147 41.249 25.2338 40.9119 26.3001 40.2745C27.3664 39.6371 28.2402 38.7231 28.8288 37.6295C28.8566 37.577 28.8703 37.5184 28.8686 37.4591C28.8669 37.3998 28.85 37.342 28.8193 37.2912C28.7887 37.2405 28.7454 37.1985 28.6938 37.1693C28.6421 37.1402 28.5838 37.1249 28.5245 37.125H17.0218C16.9624 37.1248 16.9039 37.14 16.8521 37.169C16.8004 37.1981 16.757 37.2401 16.7262 37.2909C16.6955 37.3417 16.6785 37.3995 16.6768 37.4589C16.6751 37.5182 16.6887 37.577 16.7165 37.6295C17.3051 38.7229 18.1788 39.6368 19.2449 40.2743C20.3111 40.9117 21.5299 41.2488 22.7722 41.25Z" fill="white"/>
</svg>
