<svg width="54" height="54" viewBox="0 0 54 54" fill="none" xmlns="http://www.w3.org/2000/svg">
<g clip-path="url(#clip0_748_107)">
<path d="M25.1273 10.075C27.1756 10.075 29.1035 10.4623 30.9109 11.2369C32.7183 12.0115 34.2933 13.0787 35.6359 14.4385C36.9786 15.7984 38.0372 17.3734 38.8118 19.1636C39.5864 20.9537 39.9823 22.8816 39.9995 24.9472C39.9995 26.0316 39.9306 27.0472 39.7929 27.994C39.6552 28.9407 39.4401 29.8444 39.1474 30.705C38.8548 31.5657 38.4761 32.4178 38.0114 33.2612C37.5466 34.1047 36.9958 34.9653 36.3589 35.8432C35.8597 36.5317 35.4208 37.1514 35.0421 37.7022C34.6634 38.253 34.3536 38.8039 34.1126 39.3547C33.8716 39.9055 33.6908 40.508 33.5704 41.1621C33.4499 41.8162 33.3896 42.5822 33.3896 43.46V48.0818C33.3896 48.7703 33.2605 49.4158 33.0023 50.0183C32.7441 50.6207 32.3913 51.1458 31.9437 51.5933C31.4962 52.0408 30.9712 52.3937 30.3687 52.6519C29.7662 52.9101 29.1207 53.0392 28.4322 53.0392H21.8223C21.1338 53.0392 20.4883 52.9101 19.8858 52.6519C19.2834 52.3937 18.7584 52.0408 18.3108 51.5933C17.8633 51.1458 17.5104 50.6207 17.2522 50.0183C16.994 49.4158 16.8649 48.7703 16.8649 48.0818V43.4342C16.8649 42.5563 16.8047 41.799 16.6842 41.1621C16.5637 40.5252 16.3829 39.9313 16.142 39.3805C15.901 38.8297 15.5911 38.2703 15.2124 37.7022C14.8338 37.1342 14.3948 36.5145 13.8956 35.8432C13.2587 34.9653 12.7165 34.1133 12.269 33.287C11.8214 32.4608 11.4427 31.6087 11.1329 30.7309C10.8231 29.853 10.5993 28.9407 10.4616 27.994C10.3239 27.0472 10.255 26.0316 10.255 24.9472C10.255 22.8988 10.6423 20.971 11.4169 19.1636C12.1915 17.3562 13.2587 15.7812 14.6186 14.4385C15.9784 13.0959 17.5534 12.0373 19.3436 11.2627C21.1338 10.4881 23.0617 10.0922 25.1273 10.075ZM30.0847 48.0818V46.4293H20.1699V48.0818C20.1699 48.5293 20.3334 48.9166 20.6604 49.2437C20.9875 49.5707 21.3748 49.7343 21.8223 49.7343H28.4322C28.8797 49.7343 29.267 49.5707 29.5941 49.2437C29.9212 48.9166 30.0847 48.5293 30.0847 48.0818ZM36.6946 24.9472C36.6946 23.3464 36.3933 21.8488 35.7909 20.4546C35.1884 19.0603 34.3622 17.8295 33.3122 16.7623C32.2621 15.6951 31.04 14.8689 29.6457 14.2836C28.2515 13.6984 26.7453 13.3971 25.1273 13.3799C23.5264 13.3799 22.0289 13.6812 20.6346 14.2836C19.2403 14.8861 18.0096 15.7123 16.9424 16.7623C15.8752 17.8123 15.0489 19.0345 14.4637 20.4287C13.8784 21.823 13.5772 23.3292 13.56 24.9472C13.56 26.4792 13.7149 27.796 14.0247 28.8976C14.3346 29.9993 14.7391 30.9804 15.2383 31.8411C15.7374 32.7018 16.2625 33.5108 16.8133 34.2682C17.3641 35.0256 17.8891 35.8174 18.3883 36.6436C18.8875 37.4698 19.3006 38.3994 19.6276 39.4321C19.9547 40.4649 20.1354 41.6957 20.1699 43.1244H30.0847C30.1019 41.6957 30.274 40.4735 30.6011 39.458C30.9281 38.4424 31.3412 37.5129 31.8404 36.6694C32.3396 35.826 32.8646 35.0342 33.4154 34.294C33.9663 33.5538 34.4913 32.7448 34.9904 31.8669C35.4896 30.9891 35.8941 29.9993 36.204 28.8976C36.5138 27.796 36.6773 26.4792 36.6946 24.9472ZM25.1273 6.77004C24.6797 6.77004 24.2924 6.60651 23.9654 6.27946C23.6383 5.95241 23.4748 5.56511 23.4748 5.11757V1.81263C23.4748 1.36508 23.6383 0.977785 23.9654 0.650733C24.2924 0.323682 24.6797 0.160156 25.1273 0.160156C25.5748 0.160156 25.9621 0.323682 26.2892 0.650733C26.6162 0.977785 26.7797 1.36508 26.7797 1.81263V5.11757C26.7797 5.56511 26.6162 5.95241 26.2892 6.27946C25.9621 6.60651 25.5748 6.77004 25.1273 6.77004ZM5.29762 24.121H1.99268C1.54514 24.121 1.15784 23.9575 0.830787 23.6304C0.503736 23.3033 0.34021 22.916 0.34021 22.4685C0.34021 22.021 0.503736 21.6337 0.830787 21.3066C1.15784 20.9796 1.54514 20.816 1.99268 20.816H5.29762C5.74516 20.816 6.13246 20.9796 6.45951 21.3066C6.78657 21.6337 6.95009 22.021 6.95009 22.4685C6.95009 22.916 6.78657 23.3033 6.45951 23.6304C6.13246 23.9575 5.74516 24.121 5.29762 24.121ZM6.66607 30.86C7.11362 30.86 7.50091 31.0235 7.82797 31.3505C8.15502 31.6776 8.31854 32.0735 8.31854 32.5382C8.31854 32.8825 8.22387 33.1837 8.03452 33.4419C7.84518 33.7001 7.58698 33.9067 7.25993 34.0616C7.07058 34.1477 6.81239 34.2596 6.48533 34.3973C6.15828 34.535 5.80541 34.6813 5.42672 34.8362C5.04803 34.9911 4.70376 35.1202 4.39393 35.2235C4.08409 35.3268 3.80868 35.387 3.56769 35.4043C3.12015 35.4043 2.73285 35.2407 2.4058 34.9137C2.07875 34.5866 1.91522 34.1907 1.91522 33.726C1.91522 33.3817 2.00989 33.0805 2.19924 32.8223C2.38858 32.5641 2.64678 32.3575 2.97383 32.2026C3.16318 32.1337 3.42138 32.0219 3.74843 31.8669C4.07548 31.712 4.42835 31.5657 4.80704 31.428C5.18574 31.2903 5.53 31.1612 5.83984 31.0407C6.14968 30.9202 6.42509 30.86 6.66607 30.86ZM10.5907 14.2062C10.5907 14.6537 10.4272 15.041 10.1001 15.368C9.77306 15.6951 9.38576 15.8586 8.93822 15.8586C8.62838 15.8586 8.34436 15.7812 8.08616 15.6262L5.2718 13.8963C5.03082 13.7414 4.84147 13.5434 4.70376 13.3025C4.56606 13.0615 4.4886 12.7861 4.47139 12.4762C4.47139 12.0287 4.63491 11.6414 4.96196 11.3143C5.28901 10.9873 5.67631 10.8238 6.12386 10.8238C6.39927 10.8238 6.68329 10.9098 6.97591 11.082L9.81609 12.7861C10.0571 12.9238 10.2464 13.1217 10.3841 13.3799C10.5218 13.6381 10.5907 13.9135 10.5907 14.2062ZM12.7337 4.70445C12.7337 4.25691 12.8973 3.86961 13.2243 3.54256C13.5514 3.21551 13.9387 3.05198 14.3862 3.05198C14.6788 3.05198 14.9542 3.12944 15.2124 3.28436C15.4706 3.43928 15.6772 3.64584 15.8321 3.90403L17.433 6.79586C17.5707 7.03684 17.6395 7.29504 17.6395 7.57045C17.6395 8.03521 17.476 8.43111 17.1489 8.75817C16.8219 9.08522 16.4346 9.24874 15.987 9.24874C15.6944 9.24874 15.419 9.17128 15.1608 9.01636C14.9026 8.86145 14.696 8.65489 14.5411 8.39669L12.9403 5.50487C12.8026 5.26388 12.7337 4.99707 12.7337 4.70445ZM48.2618 20.816C48.7094 20.816 49.0967 20.9796 49.4237 21.3066C49.7508 21.6337 49.9143 22.021 49.9143 22.4685C49.9143 22.916 49.7508 23.3033 49.4237 23.6304C49.0967 23.9575 48.7094 24.121 48.2618 24.121H44.9569C44.5094 24.121 44.1221 23.9575 43.795 23.6304C43.468 23.3033 43.3044 22.916 43.3044 22.4685C43.3044 22.021 43.468 21.6337 43.795 21.3066C44.1221 20.9796 44.5094 20.816 44.9569 20.816H48.2618ZM48.3135 33.7518C48.3135 34.1993 48.15 34.5866 47.8229 34.9137C47.4959 35.2407 47.1086 35.4043 46.661 35.4043C46.4717 35.4043 46.2135 35.3526 45.8864 35.2493C45.5594 35.1461 45.2065 35.0083 44.8278 34.8362C44.4491 34.6641 44.1049 34.5178 43.795 34.3973C43.4852 34.2768 43.2184 34.1563 42.9946 34.0358C42.6848 33.8981 42.4352 33.6915 42.2458 33.4161C42.0565 33.1407 41.9532 32.8309 41.936 32.4866C41.936 32.0219 42.0995 31.6346 42.4266 31.3247C42.7536 31.0149 43.1495 30.8514 43.6143 30.8341C43.8208 30.8341 44.0876 30.8944 44.4147 31.0149C44.7417 31.1354 45.086 31.2731 45.4475 31.428C45.809 31.5829 46.1532 31.7378 46.4803 31.8928C46.8073 32.0477 47.0741 32.1596 47.2807 32.2284C47.5905 32.3661 47.8401 32.5641 48.0295 32.8223C48.2188 33.0805 48.3135 33.3903 48.3135 33.7518ZM41.3163 15.8586C40.8688 15.8586 40.4815 15.6951 40.1544 15.368C39.8274 15.041 39.6638 14.6537 39.6638 14.2062C39.6638 13.9135 39.7327 13.6381 39.8704 13.3799C40.0081 13.1217 40.1974 12.9238 40.4384 12.7861L43.2786 11.082C43.5712 10.9098 43.8553 10.8238 44.1307 10.8238C44.5782 10.8238 44.9655 10.9873 45.2926 11.3143C45.6196 11.6414 45.7831 12.0287 45.7831 12.4762C45.7831 12.7688 45.7143 13.0357 45.5766 13.2766C45.4389 13.5176 45.2409 13.7242 44.9827 13.8963L42.1684 15.6262C41.9102 15.7812 41.6261 15.8586 41.3163 15.8586ZM32.615 7.57045C32.615 7.29504 32.6839 7.03684 32.8216 6.79586L34.4224 3.90403C34.5601 3.64584 34.7581 3.43928 35.0163 3.28436C35.2745 3.12944 35.5585 3.05198 35.8683 3.05198C36.3159 3.05198 36.7032 3.21551 37.0302 3.54256C37.3573 3.86961 37.5208 4.25691 37.5208 4.70445C37.5208 4.99707 37.4519 5.26388 37.3142 5.50487L35.7134 8.39669C35.5757 8.65489 35.3777 8.86145 35.1195 9.01636C34.8613 9.17128 34.5773 9.24874 34.2675 9.24874C33.8199 9.24874 33.4327 9.08522 33.1056 8.75817C32.7785 8.43111 32.615 8.03521 32.615 7.57045Z" fill="white"/>
</g>
<defs>
<clipPath id="clip0_748_107">
<rect width="52.8791" height="52.8791" fill="white" transform="translate(0.34021 0.160156)"/>
</clipPath>
</defs>
</svg>
