<svg width="73" height="71" viewBox="0 0 73 71" fill="none" xmlns="http://www.w3.org/2000/svg">
<path fill-rule="evenodd" clip-rule="evenodd" d="M36.5 74C56.6584 74 73 56.763 73 35.5C73 14.237 56.6584 -3 36.5 -3C16.3416 -3 0 14.237 0 35.5C0 56.763 16.3416 74 36.5 74ZM50.5 45.3333H26.769C26.0375 45.3523 25.1667 45.6421 25.1667 46.9167C25.1667 48.1912 26.0375 48.481 26.769 48.5H50.5V51.6667H26.75C24.8405 51.6667 22 50.4016 22 46.9167V24.75C22 21.2651 24.8405 20 26.75 20H47.3333C48.1732 20 48.9786 20.3336 49.5725 20.9275C50.1664 21.5214 50.5 22.3268 50.5 23.1667V45.3333ZM44.1667 26.3333H29.9167V29.5H44.1667V26.3333Z" fill="#0790C2"/>
</svg>
