<svg width="35" height="35" viewBox="0 0 35 35" fill="none" xmlns="http://www.w3.org/2000/svg">
<path d="M14.0943 5.85766C11.6951 4.71216 8.34154 4.15102 3.85181 4.1311C3.42838 4.12535 3.01326 4.24882 2.66181 4.48505C2.37333 4.68004 2.13719 4.94292 1.97415 5.25059C1.81111 5.55825 1.72618 5.90127 1.72681 6.24946V25.2483C1.72681 26.5326 2.64056 27.5015 3.85181 27.5015C8.5713 27.5015 13.3054 27.9424 16.1409 30.6225C16.1797 30.6594 16.2285 30.684 16.2812 30.6934C16.3338 30.7027 16.3881 30.6964 16.4372 30.6752C16.4863 30.6539 16.5281 30.6187 16.5573 30.574C16.5866 30.5292 16.6021 30.4768 16.6018 30.4233V8.03712C16.6019 7.88609 16.5696 7.7368 16.507 7.59933C16.4445 7.46186 16.3531 7.33941 16.2392 7.24024C15.5897 6.68498 14.8682 6.21992 14.0943 5.85766ZM32.6668 4.48306C32.3152 4.24742 31.9 4.12463 31.4768 4.1311C26.9871 4.15102 23.6336 4.7095 21.2343 5.85766C20.4604 6.21926 19.7387 6.6834 19.0887 7.23759C18.975 7.3369 18.8839 7.45939 18.8215 7.59684C18.7591 7.73429 18.7268 7.8835 18.7268 8.03446V30.422C18.7268 30.4734 18.7419 30.5237 18.7703 30.5665C18.7988 30.6093 18.8392 30.6428 18.8866 30.6627C18.934 30.6827 18.9862 30.6881 19.0367 30.6785C19.0872 30.6689 19.1337 30.6446 19.1704 30.6086C20.875 28.9152 23.8667 27.4995 31.4795 27.5001C32.043 27.5001 32.5836 27.2762 32.9821 26.8777C33.3806 26.4792 33.6045 25.9387 33.6045 25.3751V6.25013C33.6052 5.90124 33.5201 5.55754 33.3566 5.24935C33.193 4.94117 32.9562 4.67799 32.6668 4.48306Z" fill="black"/>
</svg>
