<svg width="51" height="51" viewBox="0 0 51 51" fill="none" xmlns="http://www.w3.org/2000/svg">
<mask id="mask0_127_36" style="mask-type:alpha" maskUnits="userSpaceOnUse" x="0" y="0" width="51" height="51">
<rect width="51" height="51" fill="#D9D9D9"/>
</mask>
<g mask="url(#mask0_127_36)">
<path d="M25 22.5593C26.1688 22.5593 27.1693 22.1175 28.0016 21.234C28.8339 20.3504 29.25 19.2882 29.25 18.0475C29.25 16.8067 28.8339 15.7445 28.0016 14.861C27.1693 13.9774 26.1688 13.5356 25 13.5356C23.8313 13.5356 22.8307 13.9774 21.9984 14.861C21.1661 15.7445 20.75 16.8067 20.75 18.0475C20.75 19.2882 21.1661 20.3504 21.9984 21.234C22.8307 22.1175 23.8313 22.5593 25 22.5593ZM25 45.1187C19.2979 39.9676 15.0391 35.1832 12.2234 30.7653C9.40781 26.3474 8 22.2585 8 18.4986C8 12.8588 9.70885 8.36575 13.1266 5.01945C16.5443 1.67315 20.5021 0 25 0C29.4979 0 33.4557 1.67315 36.8734 5.01945C40.2911 8.36575 42 12.8588 42 18.4986C42 22.2585 40.5922 26.3474 37.7766 30.7653C34.9609 35.1832 30.7021 39.9676 25 45.1187Z" fill="white"/>
</g>
</svg>
