<svg width="51" height="51" viewBox="0 0 51 51" fill="none" xmlns="http://www.w3.org/2000/svg">
<mask id="mask0_127_86" style="mask-type:alpha" maskUnits="userSpaceOnUse" x="0" y="0" width="51" height="51">
<rect width="51" height="51" fill="#D9D9D9"/>
</mask>
<g mask="url(#mask0_127_86)">
<path d="M8.25 43.3C7.08125 43.3 6.08073 42.868 5.24844 42.0038C4.41615 41.1397 4 40.101 4 38.8875V12.4125C4 11.1991 4.41615 10.1603 5.24844 9.29617C6.08073 8.43206 7.08125 8 8.25 8H42.25C43.4188 8 44.4193 8.43206 45.2516 9.29617C46.0839 10.1603 46.5 11.1991 46.5 12.4125V38.8875C46.5 40.101 46.0839 41.1397 45.2516 42.0038C44.4193 42.868 43.4188 43.3 42.25 43.3H8.25ZM25.25 27.8563L42.25 16.825V12.4125L25.25 23.4438L8.25 12.4125V16.825L25.25 27.8563Z" fill="white"/>
</g>
</svg>
