<svg width="27" height="27" viewBox="0 0 27 27" fill="none" xmlns="http://www.w3.org/2000/svg">
<path d="M4.5 23.625C3.88125 23.625 3.35175 23.4049 2.9115 22.9646C2.47125 22.5244 2.25075 21.9945 2.25 21.375V9C2.25 8.38125 2.4705 7.85175 2.9115 7.4115C3.3525 6.97125 3.882 6.75075 4.5 6.75H9V4.5C9 3.88125 9.2205 3.35175 9.6615 2.9115C10.1025 2.47125 10.632 2.25075 11.25 2.25H15.75C16.3687 2.25 16.8986 2.4705 17.3396 2.9115C17.7806 3.3525 18.0007 3.882 18 4.5V6.75H22.5C23.1187 6.75 23.6486 6.9705 24.0896 7.4115C24.5306 7.8525 24.7507 8.382 24.75 9V21.375C24.75 21.9937 24.5299 22.5236 24.0896 22.9646C23.6494 23.4056 23.1195 23.6257 22.5 23.625H4.5ZM11.25 6.75H15.75V4.5H11.25V6.75Z" fill="white"/>
</svg>
