<svg width="79" height="77" viewBox="0 0 79 77" fill="none" xmlns="http://www.w3.org/2000/svg">
<ellipse cx="39.5" cy="38.5" rx="39.5" ry="38.5" fill="#0790C2"/>
<path d="M51.0629 50.25C45.8879 50.25 43.8323 44.1165 41.8442 38.1857C39.9611 32.5633 38.0104 26.75 33.8129 26.75C32.8326 26.809 31.8917 27.1649 31.1101 27.7722C30.3286 28.3796 29.7416 29.211 29.4242 30.1604L26.6973 29.2234C26.7706 29.0031 28.5243 23.8125 33.8129 23.8125C40.066 23.8125 42.4551 30.9433 44.5654 37.2339C46.3033 42.4172 47.9435 47.3125 51.0629 47.3125C52.043 47.2536 52.9837 46.898 53.7653 46.2909C54.5469 45.6838 55.1339 44.8527 55.4516 43.9035L58.1771 44.8391C58.1052 45.0594 56.3515 50.25 51.0629 50.25Z" fill="#F8F8F8"/>
<path d="M23.75 56.125V39.9688H26.625V37.0312H23.75V17.9375H20.875V56.125C20.875 56.9041 21.1779 57.6512 21.7171 58.2021C22.2562 58.753 22.9875 59.0625 23.75 59.0625H61.125V56.125H23.75Z" fill="#F8F8F8"/>
<path d="M29.5 37.0312H32.375V39.9688H29.5V37.0312ZM35.25 37.0312H38.125V39.9688H35.25V37.0312ZM46.75 37.0312H49.625V39.9688H46.75V37.0312ZM52.5 37.0312H55.375V39.9688H52.5V37.0312ZM58.25 37.0312H61.125V39.9688H58.25V37.0312Z" fill="#F8F8F8"/>
</svg>
