<svg width="25" height="25" viewBox="0 0 25 25" fill="none" xmlns="http://www.w3.org/2000/svg">
<path d="M12.6643 2.94336C7.15031 2.94336 2.66431 7.42936 2.66431 12.9434V17.0864C2.66431 18.1104 3.56131 18.9434 4.66431 18.9434H5.66431C5.92952 18.9434 6.18388 18.838 6.37141 18.6505C6.55895 18.4629 6.66431 18.2086 6.66431 17.9434V12.8004C6.66431 12.5351 6.55895 12.2808 6.37141 12.0933C6.18388 11.9057 5.92952 11.8004 5.66431 11.8004H4.75631C5.31231 7.93036 8.64231 4.94336 12.6643 4.94336C16.6863 4.94336 20.0163 7.93036 20.5723 11.8004H19.6643C19.3991 11.8004 19.1447 11.9057 18.9572 12.0933C18.7697 12.2808 18.6643 12.5351 18.6643 12.8004V18.9434C18.6643 20.0464 17.7673 20.9434 16.6643 20.9434H14.6643V19.9434H10.6643V22.9434H16.6643C18.8703 22.9434 20.6643 21.1494 20.6643 18.9434C21.7673 18.9434 22.6643 18.1104 22.6643 17.0864V12.9434C22.6643 7.42936 18.1783 2.94336 12.6643 2.94336Z" fill="#F8F8F8"/>
</svg>
