<svg width="42" height="42" viewBox="0 0 42 42" fill="none" xmlns="http://www.w3.org/2000/svg">
<path d="M9.84354 16.4062V13.7812H7.21854C6.6964 13.7812 6.19564 13.5738 5.82643 13.2046C5.45721 12.8354 5.24979 12.3346 5.24979 11.8125C5.24979 11.2904 5.45721 10.7896 5.82643 10.4204C6.19564 10.0512 6.6964 9.84375 7.21854 9.84375H9.84354V7.21875C9.84354 6.69661 10.051 6.19585 10.4202 5.82663C10.7894 5.45742 11.2901 5.25 11.8123 5.25C12.3344 5.25 12.8352 5.45742 13.2044 5.82663C13.5736 6.19585 13.781 6.69661 13.781 7.21875V9.84375H16.406C16.9282 9.84375 17.4289 10.0512 17.7982 10.4204C18.1674 10.7896 18.3748 11.2904 18.3748 11.8125C18.3748 12.3346 18.1674 12.8354 17.7982 13.2046C17.4289 13.5738 16.9282 13.7812 16.406 13.7812H13.781V16.4062C13.781 16.9284 13.5736 17.4292 13.2044 17.7984C12.8352 18.1676 12.3344 18.375 11.8123 18.375C11.2901 18.375 10.7894 18.1676 10.4202 17.7984C10.051 17.4292 9.84354 16.9284 9.84354 16.4062ZM25.5935 9.84375C25.0714 9.84375 24.5706 10.0512 24.2014 10.4204C23.8322 10.7896 23.6248 11.2904 23.6248 11.8125C23.6248 12.3346 23.8322 12.8354 24.2014 13.2046C24.5706 13.5738 25.0714 13.7812 25.5935 13.7812H34.781C35.3032 13.7812 35.8039 13.5738 36.1732 13.2046C36.5424 12.8354 36.7498 12.3346 36.7498 11.8125C36.7498 11.2904 36.5424 10.7896 36.1732 10.4204C35.8039 10.0512 35.3032 9.84375 34.781 9.84375H25.5935ZM5.82729 33.39C5.63386 33.5702 5.47872 33.7876 5.37112 34.0291C5.26351 34.2706 5.20565 34.5313 5.20099 34.7956C5.19633 35.06 5.24495 35.3225 5.34397 35.5677C5.44299 35.8128 5.59037 36.0355 5.77732 36.2225C5.96427 36.4094 6.18696 36.5568 6.4321 36.6558C6.67724 36.7548 6.93982 36.8035 7.20416 36.7988C7.46851 36.7941 7.72921 36.7363 7.97071 36.6287C8.2122 36.5211 8.42955 36.3659 8.60979 36.1725L11.8123 32.97L15.0148 36.1725C15.388 36.5203 15.8816 36.7096 16.3917 36.7006C16.9017 36.6916 17.3883 36.485 17.7491 36.1243C18.1098 35.7635 18.3164 35.2769 18.3254 34.7669C18.3344 34.2568 18.1451 33.7632 17.7973 33.39L14.5948 30.1875L17.7973 26.985C17.9907 26.8048 18.1459 26.5874 18.2535 26.3459C18.3611 26.1044 18.4189 25.8437 18.4236 25.5794C18.4283 25.315 18.3796 25.0525 18.2806 24.8073C18.1816 24.5622 18.0342 24.3395 17.8473 24.1525C17.6603 23.9656 17.4376 23.8182 17.1925 23.7192C16.9473 23.6202 16.6848 23.5715 16.4204 23.5762C16.1561 23.5809 15.8954 23.6387 15.6539 23.7463C15.4124 23.8539 15.195 24.0091 15.0148 24.2025L11.8123 27.405L8.60979 24.2025C8.23658 23.8547 7.74296 23.6654 7.23292 23.6744C6.72288 23.6834 6.23624 23.89 5.87554 24.2507C5.51483 24.6115 5.30821 25.0981 5.29921 25.6081C5.29021 26.1182 5.47953 26.6118 5.82729 26.985L9.02979 30.1875L5.82729 33.39ZM30.1873 26.25C30.8835 26.25 31.5512 25.9734 32.0434 25.4812C32.5357 24.9889 32.8123 24.3212 32.8123 23.625C32.8123 22.9288 32.5357 22.2611 32.0434 21.7688C31.5512 21.2766 30.8835 21 30.1873 21C29.4911 21 28.8234 21.2766 28.3311 21.7688C27.8389 22.2611 27.5623 22.9288 27.5623 23.625C27.5623 24.3212 27.8389 24.9889 28.3311 25.4812C28.8234 25.9734 29.4911 26.25 30.1873 26.25ZM24.9373 26.9062C24.4151 26.9062 23.9144 27.1137 23.5452 27.4829C23.176 27.8521 22.9685 28.3529 22.9685 28.875C22.9685 29.3971 23.176 29.8979 23.5452 30.2671C23.9144 30.6363 24.4151 30.8438 24.9373 30.8438H35.4373C35.9594 30.8438 36.4602 30.6363 36.8294 30.2671C37.1986 29.8979 37.406 29.3971 37.406 28.875C37.406 28.3529 37.1986 27.8521 36.8294 27.4829C36.4602 27.1137 35.9594 26.9062 35.4373 26.9062H24.9373ZM32.8123 34.125C32.8123 34.8212 32.5357 35.4889 32.0434 35.9812C31.5512 36.4734 30.8835 36.75 30.1873 36.75C29.4911 36.75 28.8234 36.4734 28.3311 35.9812C27.8389 35.4889 27.5623 34.8212 27.5623 34.125C27.5623 33.4288 27.8389 32.7611 28.3311 32.2688C28.8234 31.7766 29.4911 31.5 30.1873 31.5C30.8835 31.5 31.5512 31.7766 32.0434 32.2688C32.5357 32.7611 32.8123 33.4288 32.8123 34.125Z" fill="white"/>
</svg>
