<svg width="37" height="37" viewBox="0 0 37 37" fill="none" xmlns="http://www.w3.org/2000/svg">
<path d="M25.4143 31.5209L22.5006 28.6071L20.9143 30.1934L25.4143 34.6934L34.4143 25.6934L32.8281 24.1071L25.4143 31.5209ZM10.7893 20.0684H18.6643V22.3184H10.7893V20.0684ZM10.7893 14.4434H24.2893V16.6934H10.7893V14.4434ZM10.7893 8.81836H24.2893V11.0684H10.7893V8.81836Z" fill="black"/>
<path d="M18.6643 34.6934H7.41431C6.17343 34.6934 5.16431 33.6842 5.16431 32.4434V5.44336C5.16431 4.20248 6.17343 3.19336 7.41431 3.19336H27.6643C28.9052 3.19336 29.9143 4.20248 29.9143 5.44336V22.3184H27.6643V5.44336H7.41431V32.4434H18.6643V34.6934Z" fill="black"/>
</svg>
