<svg width="47" height="38" viewBox="0 0 47 38" fill="none" xmlns="http://www.w3.org/2000/svg">
<path d="M25.9822 4.01512L24.2491 0.467469C23.9627 -0.148547 23.0667 -0.170813 22.7509 0.467469L21.0178 4.01512L17.177 4.57177C16.4941 4.67567 16.2003 5.52919 16.707 6.0413L19.4977 8.78739L18.8367 12.6542C18.7339 13.3444 19.4389 13.8788 20.0705 13.5597L23.5147 11.719L26.9369 13.53C27.5684 13.8491 28.2808 13.3147 28.1706 12.6245L27.5097 8.7577L30.3003 6.0413C30.7997 5.53661 30.5133 4.68309 29.8303 4.57177L25.9895 4.01512H25.9822ZM18.8 18.9999C17.5002 18.9999 16.45 20.0612 16.45 21.3749V35.6249C16.45 36.9386 17.5002 37.9999 18.8 37.9999H28.2C29.4998 37.9999 30.55 36.9386 30.55 35.6249V21.3749C30.55 20.0612 29.4998 18.9999 28.2 18.9999H18.8ZM2.35 23.7499C1.05016 23.7499 0 24.8112 0 26.1249V35.6249C0 36.9386 1.05016 37.9999 2.35 37.9999H11.75C13.0498 37.9999 14.1 36.9386 14.1 35.6249V26.1249C14.1 24.8112 13.0498 23.7499 11.75 23.7499H2.35ZM32.9 30.8749V35.6249C32.9 36.9386 33.9502 37.9999 35.25 37.9999H44.65C45.9498 37.9999 47 36.9386 47 35.6249V30.8749C47 29.5612 45.9498 28.4999 44.65 28.4999H35.25C33.9502 28.4999 32.9 29.5612 32.9 30.8749Z" fill="white"/>
</svg>
