<svg width="27" height="27" viewBox="0 0 27 27" fill="none" xmlns="http://www.w3.org/2000/svg">
<path d="M13.5 3.375C13.7867 3.37532 14.0625 3.48511 14.271 3.68195C14.4795 3.87879 14.605 4.14782 14.6218 4.43407C14.6386 4.72032 14.5455 5.00218 14.3615 5.22206C14.1774 5.44195 13.9164 5.58326 13.6316 5.61713L13.5 5.625H7.875C7.59945 5.62504 7.3335 5.7262 7.12758 5.9093C6.92167 6.09241 6.79011 6.34472 6.75787 6.61837L6.75 6.75V20.25C6.75004 20.5256 6.8512 20.7915 7.0343 20.9974C7.21741 21.2033 7.46972 21.3349 7.74337 21.3671L7.875 21.375H12.9375C13.2242 21.3753 13.5 21.4851 13.7085 21.682C13.917 21.8788 14.0425 22.1478 14.0593 22.4341C14.0761 22.7203 13.983 23.0022 13.799 23.2221C13.6149 23.4419 13.3539 23.5833 13.0691 23.6171L12.9375 23.625H7.875C7.01414 23.625 6.1858 23.2961 5.55946 22.7056C4.93312 22.115 4.55613 21.3074 4.50563 20.448L4.5 20.25V6.75C4.49995 5.88914 4.82887 5.0608 5.41944 4.43446C6.01002 3.80812 6.81762 3.43113 7.677 3.38063L7.875 3.375H13.5ZM19.9204 9.522L23.1019 12.7046C23.3128 12.9156 23.4313 13.2017 23.4313 13.5C23.4313 13.7983 23.3128 14.0844 23.1019 14.2954L19.9204 17.478C19.7093 17.6889 19.423 17.8074 19.1246 17.8073C18.8262 17.8072 18.54 17.6885 18.3291 17.4774C18.1181 17.2663 17.9997 16.9801 17.9998 16.6817C17.9999 16.3832 18.1185 16.0971 18.3296 15.8861L19.5907 14.625H13.5C13.2016 14.625 12.9155 14.5065 12.7045 14.2955C12.4935 14.0845 12.375 13.7984 12.375 13.5C12.375 13.2016 12.4935 12.9155 12.7045 12.7045C12.9155 12.4935 13.2016 12.375 13.5 12.375H19.5907L18.3296 11.1139C18.1185 10.9029 17.9999 10.6168 17.9998 10.3183C17.9997 10.0199 18.1181 9.73366 18.3291 9.52256C18.54 9.31147 18.8262 9.19281 19.1246 9.19271C19.423 9.1926 19.7093 9.31105 19.9204 9.522Z" fill="#F8F8F8"/>
</svg>
