<svg width="20" height="24" viewBox="0 0 20 24" fill="none" xmlns="http://www.w3.org/2000/svg">
<path d="M9.5 0.375C9.78674 0.375318 10.0625 0.485114 10.271 0.681954C10.4795 0.878795 10.605 1.14782 10.6218 1.43407C10.6386 1.72032 10.5455 2.00218 10.3615 2.22206C10.1774 2.44195 9.91636 2.58326 9.63162 2.61713L9.5 2.625H3.875C3.59945 2.62504 3.3335 2.7262 3.12758 2.9093C2.92167 3.09241 2.79011 3.34472 2.75787 3.61837L2.75 3.75V17.25C2.75004 17.5256 2.8512 17.7915 3.0343 17.9974C3.21741 18.2033 3.46972 18.3349 3.74337 18.3671L3.875 18.375H8.9375C9.22424 18.3753 9.50004 18.4851 9.70854 18.682C9.91704 18.8788 10.0425 19.1478 10.0593 19.4341C10.0761 19.7203 9.98299 20.0022 9.79895 20.2221C9.61491 20.4419 9.35386 20.5833 9.06912 20.6171L8.9375 20.625H3.875C3.01414 20.625 2.1858 20.2961 1.55946 19.7056C0.933117 19.115 0.556129 18.3074 0.505625 17.448L0.5 17.25V3.75C0.499952 2.88914 0.828866 2.0608 1.41944 1.43446C2.01002 0.808117 2.81762 0.431129 3.677 0.380625L3.875 0.375H9.5ZM15.9204 6.522L19.1019 9.70463C19.3128 9.91559 19.4313 10.2017 19.4313 10.5C19.4313 10.7983 19.3128 11.0844 19.1019 11.2954L15.9204 14.478C15.7093 14.6889 15.423 14.8074 15.1246 14.8073C14.8262 14.8072 14.54 14.6885 14.3291 14.4774C14.1181 14.2663 13.9997 13.9801 13.9998 13.6817C13.9999 13.3832 14.1185 13.0971 14.3296 12.8861L15.5907 11.625H9.5C9.20163 11.625 8.91548 11.5065 8.7045 11.2955C8.49353 11.0845 8.375 10.7984 8.375 10.5C8.375 10.2016 8.49353 9.91548 8.7045 9.7045C8.91548 9.49353 9.20163 9.375 9.5 9.375H15.5907L14.3296 8.11387C14.1185 7.90293 13.9999 7.61676 13.9998 7.31834C13.9997 7.01991 14.1181 6.73366 14.3291 6.52256C14.54 6.31147 14.8262 6.19281 15.1246 6.19271C15.423 6.1926 15.7093 6.31105 15.9204 6.522Z" fill="#F8F8F8"/>
</svg>
