<svg width="45" height="45" viewBox="0 0 45 45" fill="none" xmlns="http://www.w3.org/2000/svg">
<path d="M38.2644 30.2747C38.1216 30.1028 37.9815 29.9309 37.8439 29.7651C35.9523 27.4783 34.8079 26.0981 34.8079 19.6245C34.8079 16.2729 34.0057 13.5229 32.4245 11.4604C31.2585 9.93672 29.6825 8.78086 27.6052 7.92664C27.5784 7.91178 27.5546 7.89228 27.5347 7.86906C26.7875 5.36828 24.7428 3.69336 22.4368 3.69336C20.1307 3.69336 18.0869 5.36828 17.3397 7.86648C17.3198 7.88889 17.2963 7.90777 17.2701 7.92234C12.4224 9.91695 10.0665 13.7438 10.0665 19.6219C10.0665 26.0981 8.92379 27.4783 7.03046 29.7625C6.89289 29.9284 6.75274 30.0968 6.61001 30.2721C6.24132 30.7165 6.00772 31.2572 5.93687 31.8301C5.86601 32.4031 5.96086 32.9843 6.21019 33.5051C6.7407 34.6223 7.87137 35.3158 9.16196 35.3158H35.721C37.0056 35.3158 38.1285 34.6231 38.6608 33.5111C38.9112 32.9902 39.0069 32.4085 38.9367 31.8349C38.8664 31.2613 38.6331 30.7198 38.2644 30.2747ZM22.4368 42.1934C23.6792 42.1924 24.8983 41.8553 25.9646 41.2178C27.0309 40.5804 27.9047 39.6664 28.4934 38.5728C28.5211 38.5204 28.5348 38.4617 28.5331 38.4025C28.5315 38.3432 28.5145 38.2854 28.4838 38.2346C28.4532 38.1838 28.41 38.1418 28.3583 38.1127C28.3066 38.0836 28.2483 38.0683 28.189 38.0684H16.6863C16.6269 38.0681 16.5684 38.0833 16.5167 38.1124C16.4649 38.1415 16.4215 38.1834 16.3908 38.2342C16.36 38.285 16.343 38.3429 16.3413 38.4022C16.3396 38.4616 16.3533 38.5203 16.381 38.5728C16.9696 39.6663 17.8433 40.5802 18.9094 41.2176C19.9756 41.855 21.1944 42.1922 22.4368 42.1934Z" fill="white"/>
</svg>
