<svg width="45" height="44" viewBox="0 0 45 44" fill="none" xmlns="http://www.w3.org/2000/svg">
<path d="M38.5994 29.3313C38.4566 29.1595 38.3165 28.9876 38.1789 28.8217C36.2873 26.5349 35.1429 25.1548 35.1429 18.6811C35.1429 15.3295 34.3407 12.5795 32.7595 10.517C31.5935 8.99336 30.0175 7.8375 27.9401 6.98328C27.9134 6.96842 27.8895 6.94892 27.8696 6.9257C27.1225 4.42492 25.0778 2.75 22.7718 2.75C20.4657 2.75 18.4219 4.42492 17.6747 6.92312C17.6548 6.94553 17.6313 6.96441 17.6051 6.97898C12.7574 8.97359 10.4015 12.8004 10.4015 18.6785C10.4015 25.1548 9.25878 26.5349 7.36545 28.8191C7.22788 28.985 7.08773 29.1534 6.945 29.3288C6.57631 29.7732 6.34271 30.3138 6.27186 30.8868C6.201 31.4597 6.29585 32.041 6.54518 32.5617C7.07569 33.6789 8.20636 34.3724 9.49695 34.3724H36.056C37.3406 34.3724 38.4635 33.6798 38.9958 32.5677C39.2462 32.0469 39.3419 31.4651 39.2717 30.8915C39.2014 30.3179 38.9681 29.7765 38.5994 29.3313ZM22.7718 41.25C24.0142 41.249 25.2333 40.9119 26.2996 40.2745C27.3659 39.6371 28.2397 38.7231 28.8283 37.6295C28.8561 37.577 28.8698 37.5184 28.8681 37.4591C28.8664 37.3998 28.8495 37.342 28.8188 37.2912C28.7882 37.2405 28.7449 37.1985 28.6933 37.1693C28.6416 37.1402 28.5833 37.1249 28.524 37.125H17.0213C16.9619 37.1248 16.9034 37.14 16.8517 37.169C16.7999 37.1981 16.7565 37.2401 16.7258 37.2909C16.695 37.3417 16.678 37.3995 16.6763 37.4589C16.6746 37.5182 16.6883 37.577 16.716 37.6295C17.3046 38.7229 18.1783 39.6368 19.2444 40.2743C20.3106 40.9117 21.5294 41.2488 22.7718 41.25Z" fill="white"/>
</svg>
