<svg width="73" height="77" viewBox="0 0 73 77" fill="none" xmlns="http://www.w3.org/2000/svg">
<path fill-rule="evenodd" clip-rule="evenodd" d="M36.5 77C56.6584 77 73 59.763 73 38.5C73 17.237 56.6584 0 36.5 0C16.3416 0 0 17.237 0 38.5C0 59.763 16.3416 77 36.5 77ZM50.5 48.3333H26.769C26.0375 48.3523 25.1667 48.6421 25.1667 49.9167C25.1667 51.1912 26.0375 51.481 26.769 51.5H50.5V54.6667H26.75C24.8405 54.6667 22 53.4016 22 49.9167V27.75C22 24.2651 24.8405 23 26.75 23H47.3333C48.1732 23 48.9786 23.3336 49.5725 23.9275C50.1664 24.5214 50.5 25.3268 50.5 26.1667V48.3333ZM44.1667 29.3333H29.9167V32.5H44.1667V29.3333Z" fill="#0790C2"/>
</svg>
