<svg width="73" height="77" viewBox="0 0 73 77" fill="none" xmlns="http://www.w3.org/2000/svg">
<path fill-rule="evenodd" clip-rule="evenodd" d="M36.5 77C56.6584 77 73 59.763 73 38.5C73 17.237 56.6584 0 36.5 0C16.3416 0 0 17.237 0 38.5C0 59.763 16.3416 77 36.5 77ZM24.6429 31.5312V34.1562C24.6429 34.6784 24.8503 35.1792 25.2195 35.5484C25.5887 35.9176 26.0895 36.125 26.6116 36.125C27.1338 36.125 27.6345 35.9176 28.0037 35.5484C28.3729 35.1792 28.5804 34.6784 28.5804 34.1562V31.5312H31.2054C31.7275 31.5312 32.2283 31.3238 32.5975 30.9546C32.9667 30.5854 33.1741 30.0846 33.1741 29.5625C33.1741 29.0404 32.9667 28.5396 32.5975 28.1704C32.2283 27.8012 31.7275 27.5938 31.2054 27.5938H28.5804V24.9688C28.5804 24.4466 28.3729 23.9458 28.0037 23.5766C27.6345 23.2074 27.1338 23 26.6116 23C26.0895 23 25.5887 23.2074 25.2195 23.5766C24.8503 23.9458 24.6429 24.4466 24.6429 24.9688V27.5938H22.0179C21.4957 27.5938 20.995 27.8012 20.6257 28.1704C20.2565 28.5396 20.0491 29.0404 20.0491 29.5625C20.0491 30.0846 20.2565 30.5854 20.6257 30.9546C20.995 31.3238 21.4957 31.5312 22.0179 31.5312H24.6429ZM39.0007 28.1704C39.3699 27.8012 39.8707 27.5938 40.3929 27.5938H49.5804C50.1025 27.5938 50.6033 27.8012 50.9725 28.1704C51.3417 28.5396 51.5491 29.0404 51.5491 29.5625C51.5491 30.0846 51.3417 30.5854 50.9725 30.9546C50.6033 31.3238 50.1025 31.5312 49.5804 31.5312H40.3929C39.8707 31.5312 39.3699 31.3238 39.0007 30.9546C38.6315 30.5854 38.4241 30.0846 38.4241 29.5625C38.4241 29.0404 38.6315 28.5396 39.0007 28.1704ZM20.1704 51.7791C20.278 51.5376 20.4332 51.3202 20.6266 51.14L23.8291 47.9375L20.6266 44.735C20.2788 44.3618 20.0895 43.8682 20.0985 43.3581C20.1075 42.8481 20.3141 42.3615 20.6749 42.0007C21.0356 41.64 21.5222 41.4334 22.0322 41.4244C22.5423 41.4154 23.0359 41.6047 23.4091 41.9525L26.6116 45.155L29.8141 41.9525C29.9943 41.7591 30.2117 41.6039 30.4532 41.4963C30.6947 41.3887 30.9554 41.3309 31.2197 41.3262C31.4841 41.3215 31.7467 41.3702 31.9918 41.4692C32.237 41.5682 32.4596 41.7156 32.6466 41.9025C32.8335 42.0895 32.9809 42.3122 33.0799 42.5573C33.179 42.8025 33.2276 43.065 33.2229 43.3294C33.2182 43.5937 33.1604 43.8544 33.0528 44.0959C32.9452 44.3374 32.79 44.5548 32.5966 44.735L29.3941 47.9375L32.5966 51.14C32.9444 51.5132 33.1337 52.0068 33.1247 52.5169C33.1157 53.0269 32.9091 53.5135 32.5484 53.8743C32.1877 54.235 31.701 54.4416 31.191 54.4506C30.6809 54.4596 30.1873 54.2703 29.8141 53.9225L26.6116 50.72L23.4091 53.9225C23.2289 54.1159 23.0115 54.2711 22.77 54.3787C22.5285 54.4863 22.2678 54.5441 22.0035 54.5488C21.7391 54.5535 21.4766 54.5048 21.2314 54.4058C20.9863 54.3068 20.7636 54.1594 20.5766 53.9725C20.3897 53.7855 20.2423 53.5628 20.1433 53.3177C20.0443 53.0725 19.9956 52.81 20.0003 52.5456C20.005 52.2813 20.0628 52.0206 20.1704 51.7791ZM46.8428 43.2312C46.3505 43.7234 45.6828 44 44.9866 44C44.2904 44 43.6227 43.7234 43.1304 43.2312C42.6382 42.7389 42.3616 42.0712 42.3616 41.375C42.3616 40.6788 42.6382 40.0111 43.1304 39.5188C43.6227 39.0266 44.2904 38.75 44.9866 38.75C45.6828 38.75 46.3505 39.0266 46.8428 39.5188C47.3351 40.0111 47.6116 40.6788 47.6116 41.375C47.6116 42.0712 47.3351 42.7389 46.8428 43.2312ZM38.3445 45.2329C38.7137 44.8637 39.2145 44.6562 39.7366 44.6562H50.2366C50.7588 44.6562 51.2595 44.8637 51.6287 45.2329C51.9979 45.6021 52.2054 46.1029 52.2054 46.625C52.2054 47.1471 51.9979 47.6479 51.6287 48.0171C51.2595 48.3863 50.7588 48.5938 50.2366 48.5938H39.7366C39.2145 48.5938 38.7137 48.3863 38.3445 48.0171C37.9753 47.6479 37.7679 47.1471 37.7679 46.625C37.7679 46.1029 37.9753 45.6021 38.3445 45.2329ZM46.8428 53.7312C47.3351 53.2389 47.6116 52.5712 47.6116 51.875C47.6116 51.1788 47.3351 50.5111 46.8428 50.0188C46.3505 49.5266 45.6828 49.25 44.9866 49.25C44.2904 49.25 43.6227 49.5266 43.1304 50.0188C42.6382 50.5111 42.3616 51.1788 42.3616 51.875C42.3616 52.5712 42.6382 53.2389 43.1304 53.7312C43.6227 54.2234 44.2904 54.5 44.9866 54.5C45.6828 54.5 46.3505 54.2234 46.8428 53.7312Z" fill="#0790C2"/>
</svg>
