<svg width="61" height="57" viewBox="0 0 61 57" fill="none" xmlns="http://www.w3.org/2000/svg">
<path d="M59.4445 28.4179C59.4445 43.5033 46.4201 55.8358 30.2222 55.8358C14.0244 55.8358 1 43.5033 1 28.4179C1 13.3325 14.0244 1 30.2222 1C46.4201 1 59.4445 13.3325 59.4445 28.4179Z" stroke="white" stroke-width="2"/>
<path d="M21.5386 16.8023C21.5386 21.8384 25.6369 25.9366 30.673 25.9366C35.709 25.9366 39.8073 21.8384 39.8073 16.8023C39.8073 11.7662 35.709 7.66797 30.673 7.66797C25.6369 7.66797 21.5386 11.7662 21.5386 16.8023ZM46.9118 46.2351H48.9416V44.2053C48.9416 36.3721 42.5659 29.9963 34.7327 29.9963H26.6133C18.778 29.9963 12.4043 36.3721 12.4043 44.2053V46.2351H46.9118Z" fill="white"/>
</svg>
